<svg id="Ebene_1" data-name="Ebene 1" xmlns="http://www.w3.org/2000/svg" viewBox="0 0 22 17.23"><defs><style>.cls-1{fill:#f44336;}.cls-2{fill:#e5e0df;}.cls-3{fill:#f2f2f2;}.cls-4{fill:#6d4c41;}.cls-5{fill:#dbdbdb;}.cls-6{fill:#aaa;}.cls-7{fill:#d03d32;}.cls-8{fill:#3e2723;}</style></defs><title>calendar</title><path class="cls-1" d="M1,3.42h10.9V7.54H1V3.42Z" transform="translate(-1 -3.42)"/><path class="cls-2" d="M23,7.54v13a.15.15,0,0,1-.15.15H11.91V7.54Z" transform="translate(-1 -3.42)"/><rect class="cls-3" y="4.12" width="10.91" height="13.11"/><rect class="cls-4" x="4.31" y="1.01" width="2.2" height="2.2" rx="0.99" ry="0.99"/><rect class="cls-5" x="6.51" y="6.14" width="2.2" height="2.2"/><rect class="cls-6" x="10.91" y="6.14" width="1.1" height="2.2"/><rect class="cls-5" x="9.81" y="6.14" width="1.1" height="2.2"/><rect class="cls-6" x="13.11" y="6.14" width="2.2" height="2.2"/><rect class="cls-6" x="16.41" y="6.14" width="2.2" height="2.2"/><rect class="cls-5" x="3.21" y="9.44" width="2.2" height="2.2"/><rect class="cls-5" x="6.51" y="9.44" width="2.2" height="2.2"/><rect class="cls-6" x="10.91" y="9.44" width="1.1" height="2.2"/><rect class="cls-5" x="9.81" y="9.44" width="1.1" height="2.2"/><rect class="cls-6" x="13.11" y="9.44" width="2.2" height="2.2"/><rect class="cls-5" x="3.21" y="12.92" width="2.2" height="2.2"/><rect class="cls-5" x="6.51" y="12.92" width="2.2" height="2.2"/><rect class="cls-6" x="10.91" y="12.92" width="1.1" height="2.2"/><rect class="cls-5" x="9.81" y="12.92" width="1.1" height="2.2"/><rect class="cls-6" x="13.11" y="12.92" width="2.2" height="2.2"/><rect class="cls-6" x="16.41" y="9.44" width="2.2" height="2.2"/><path class="cls-7" d="M11.82,3.42H23V7.54H11.82V3.42Z" transform="translate(-1 -3.42)"/><path class="cls-8" d="M18,5.53a1.1,1.1,0,1,1-.32-.78A1.1,1.1,0,0,1,18,5.53Z" transform="translate(-1 -3.42)"/></svg>