<svg id="Ebene_1" data-name="Ebene 1" xmlns="http://www.w3.org/2000/svg" viewBox="0 0 22 18.56"><defs><style>.cls-1{fill:#e5e0df;}.cls-2{fill:#f2f2f2;}.cls-3,.cls-6,.cls-7{fill:none;stroke-miterlimit:10;}.cls-3{stroke:#aaa;}.cls-3,.cls-6{stroke-width:0.18px;}.cls-4{fill:#aaa;}.cls-5{fill:#dbdbdb;}.cls-6{stroke:#dbdbdb;}.cls-7{stroke:#000;stroke-width:0.16px;}</style></defs><title>newsandroid</title><polygon class="cls-1" points="7.37 16.53 0 18.56 0 2.03 7.37 0 7.37 16.53"/><polygon class="cls-2" points="14.74 18.56 7.37 16.53 7.37 0 14.63 1.7 14.74 18.56"/><polygon class="cls-1" points="21.96 17.04 14.74 18.56 14.63 1.7 22 0.57 21.96 17.04"/><line class="cls-3" x1="1.55" y1="4.36" x2="6.32" y2="3.21"/><line class="cls-3" x1="1.55" y1="6.17" x2="6.32" y2="5.02"/><line class="cls-3" x1="1.55" y1="7.98" x2="6.32" y2="6.83"/><line class="cls-3" x1="1.55" y1="9.8" x2="6.32" y2="8.64"/><line class="cls-3" x1="16.1" y1="11.86" x2="20.96" y2="11.2"/><line class="cls-3" x1="16.13" y1="13.41" x2="21" y2="12.74"/><line class="cls-3" x1="16.17" y1="14.95" x2="21.04" y2="14.29"/><line class="cls-3" x1="16.21" y1="16.5" x2="21.08" y2="15.84"/><polygon class="cls-4" points="20.81 6.01 16.04 6.67 15.87 3.07 20.65 2.39 20.81 6.01"/><polygon class="cls-5" points="11.35 16.55 8.4 15.63 8.4 6.6 11.35 7.49 11.35 16.55"/><line class="cls-6" x1="8.3" y1="1.89" x2="13.73" y2="3.38"/><path class="cls-6" d="M14.07,9.35" transform="translate(-1 -2.68)"/><path class="cls-7" d="M9.46,7.87" transform="translate(-1 -2.68)"/><path class="cls-6" d="M13.31,12.13" transform="translate(-1 -2.68)"/><path class="cls-6" d="M13.31,12.13" transform="translate(-1 -2.68)"/><line class="cls-6" x1="8.3" y1="3.05" x2="13.73" y2="4.53"/><line class="cls-6" x1="8.3" y1="4.36" x2="13.73" y2="5.84"/><line class="cls-6" x1="12.24" y1="7.69" x2="13.78" y2="7.92"/><line class="cls-6" x1="12.24" y1="8.75" x2="13.78" y2="8.98"/><line class="cls-6" x1="12.24" y1="9.81" x2="13.78" y2="10.04"/><line class="cls-6" x1="12.24" y1="10.87" x2="13.78" y2="11.1"/><line class="cls-6" x1="12.24" y1="11.93" x2="13.78" y2="12.16"/><line class="cls-6" x1="12.24" y1="12.99" x2="13.78" y2="13.22"/><line class="cls-6" x1="12.24" y1="14.05" x2="13.78" y2="14.28"/><line class="cls-3" x1="15.92" y1="8.79" x2="20.79" y2="8.13"/><line class="cls-3" x1="15.96" y1="10.34" x2="20.83" y2="9.67"/></svg>