<svg id="Ebene_1" data-name="Ebene 1" xmlns="http://www.w3.org/2000/svg" viewBox="0 0 21 18.71"><defs><style>.cls-1{fill:#a2cf6e;}.cls-2{fill:#8bc34a;}.cls-3{fill:#f6695e;}.cls-4{fill:#f44336;}.cls-5{fill:#ff794e;}.cls-6{fill:#ff5722;}</style></defs><title>mapandroid</title><polygon class="cls-1" points="10.49 6.94 10.49 18.71 0 18.71 2.2 6.94 10.49 6.94"/><polygon class="cls-2" points="21 18.71 10.49 18.71 10.49 6.94 18.8 6.94 21 18.71"/><path class="cls-3" d="M11.48,16.89c-.08,0-.18-.18-.28-.36-1-1.9-3.79-7.57-3.79-9.73a3.92,3.92,0,0,1,3.92-3.92h0Z" transform="translate(-1 -2.88)"/><path class="cls-4" d="M15.26,6.8c0,1.89-3.2,8.65-3.69,10,0,.07-.05.09-.09.09l-.14-14A3.92,3.92,0,0,1,15.26,6.8Z" transform="translate(-1 -2.88)"/><path class="cls-5" d="M11.36,7.09v2.3h0a2.3,2.3,0,1,1,0-4.6Z" transform="translate(-1 -2.88)"/><path class="cls-6" d="M11.36,7.09V4.79h0a2.3,2.3,0,1,1,0,4.6Z" transform="translate(-1 -2.88)"/></svg>